<svg width="28" height="28" viewBox="0 0 28 28" fill="none" xmlns="http://www.w3.org/2000/svg">
<g clip-path="url(#clip0_13_218)">
<path d="M22.1992 26.0212C21.9893 26.0212 21.7807 25.9591 21.6018 25.8378L14.8431 21.2532L11.2181 23.8616C10.9338 24.066 10.5674 24.1175 10.2373 23.9995C9.90757 23.8812 9.65717 23.6081 9.5678 23.2694L7.74764 16.3716L1.24402 13.8848C0.834596 13.7282 0.563063 13.3365 0.560083 12.8981C0.557104 12.4597 0.823247 12.0643 1.23069 11.9022L25.9598 2.06228C26.0721 2.01462 26.1908 1.98709 26.3105 1.97972C26.3534 1.97716 26.3964 1.97716 26.4391 1.97957C26.6871 1.99433 26.9306 2.09534 27.1207 2.28175C27.1405 2.30105 27.1592 2.32077 27.1769 2.34134C27.3344 2.52122 27.4209 2.74055 27.4372 2.96399C27.4412 3.02017 27.4409 3.07706 27.436 3.13395C27.4326 3.17452 27.4267 3.21495 27.4185 3.2551L23.2444 25.1564C23.1773 25.5082 22.9378 25.8028 22.607 25.9399C22.4757 25.9944 22.3371 26.0212 22.1992 26.0212ZM15.4366 19.0844L21.457 23.168L24.7049 6.12635L12.9743 17.4142L15.4082 19.0652C15.418 19.0713 15.4273 19.0778 15.4366 19.0844ZM10.4248 18.1763L11.2309 21.2307L12.9676 19.981L10.6935 18.4383C10.5878 18.3668 10.4973 18.2777 10.4248 18.1763ZM4.55166 12.871L9.01735 14.5784C9.33726 14.7007 9.57872 14.9696 9.66611 15.3008L10.2324 17.4471C10.2584 17.1995 10.3706 16.9666 10.5529 16.7911L21.7305 6.03556L4.55166 12.871Z" fill="#EA9E1F"/>
</g>
<defs>
<clipPath id="clip0_13_218">
<rect width="26.88" height="26.88" fill="white" transform="translate(0.560059 0.55957)"/>
</clipPath>
</defs>
</svg>
