<svg width="33" height="33" viewBox="0 0 33 33" fill="none" xmlns="http://www.w3.org/2000/svg">
<g clip-path="url(#clip0_13_214)">
<path d="M16.479 27.9878C16.4764 27.9878 16.4735 27.9878 16.4706 27.9878C15.5146 27.9813 7.06385 27.9042 4.66957 27.2566C2.99629 26.8068 1.6754 25.4874 1.22439 23.8139C0.5979 21.4619 0.63778 16.9337 0.642131 16.5721C0.638022 16.2122 0.597658 11.6465 1.22245 9.27516C1.22318 9.27299 1.22366 9.27057 1.22439 9.26839C1.67032 7.61396 3.02094 6.25367 4.66546 5.80266C4.66957 5.80145 4.67392 5.80049 4.67803 5.79928C7.04524 5.17714 15.5127 5.10101 16.4706 5.09448H16.4877C17.4461 5.10101 25.9193 5.17811 28.2916 5.82659C29.9605 6.27519 31.2805 7.59293 31.7327 9.26428C32.3826 11.6373 32.3224 16.2129 32.3159 16.5991C32.3205 16.9796 32.3584 21.4672 31.7356 23.831C31.7351 23.8335 31.7344 23.8356 31.7339 23.8378C31.2826 25.5113 29.962 26.8308 28.2868 27.2811C28.2846 27.2818 28.2822 27.2823 28.28 27.283C25.913 27.9049 17.4453 27.981 16.4877 27.9878C16.4848 27.9878 16.4819 27.9878 16.479 27.9878ZM3.61479 9.90986C3.06469 12.003 3.11665 16.5104 3.11713 16.5559V16.5885C3.1007 17.8386 3.15847 21.4588 3.61504 23.1734C3.83643 23.9944 4.48781 24.6448 5.31394 24.867C7.08053 25.3448 13.9634 25.4951 16.479 25.5128C19.0012 25.4951 25.8942 25.3489 27.6477 24.8902C28.4712 24.6673 29.1204 24.0191 29.3432 23.1971C29.8003 21.4573 29.8576 17.8548 29.8409 16.6127C29.8409 16.5996 29.8409 16.5866 29.8411 16.5735C29.8639 15.3085 29.8191 11.646 29.3454 9.9176C29.3449 9.91591 29.3444 9.91422 29.3442 9.91252C29.1218 9.08784 28.4702 8.43743 27.6441 8.21531C25.8947 7.73698 19.0007 7.58713 16.479 7.56949C13.9586 7.58713 7.07231 7.73312 5.31346 8.19138C4.50304 8.41616 3.83692 9.08978 3.61479 9.90986ZM30.5389 23.5159H30.5397H30.5389ZM13.3246 21.5528V11.5293L21.9871 16.5411L13.3246 21.5528Z" fill="#EA9E1F"/>
</g>
<defs>
<clipPath id="clip0_13_214">
<rect width="31.68" height="31.68" fill="white" transform="translate(0.640137 0.639648)"/>
</clipPath>
</defs>
</svg>
